# xmcd CD database file
#
# Track frame offsets:
#	150
#	23166
#	43106
#	59866
#	81221
#	96348
#	117021
#	135660
#	153912
#	178166
#
# Disc length: 2769 seconds
#
# Revision: 0
# Processed by: cddbd v1.5.1PL0 Copyright (c) Steve Scherf et al.
# Submitted via: CDex 1.51
#
DISCID=860acf0a
DTITLE=James Lynch And Interstate - Live In Holland 1996
DYEAR=1998
DGENRE=Country
TTITLE0=Apache - Rawhide
TTITLE1=Gotta Have That Harley
TTITLE2=Route 66
TTITLE3=Folsom Prison Blues
TTITLE4=Big River
TTITLE5=I'm So Lonesome I Could Cry
TTITLE6=Moanin' The Blues
TTITLE7=Interstate 40
TTITLE8=(Ghost) Riders In The Sky
TTITLE9=Heartbreak Hotel - Johnny B.Goode
EXTD=YEAR: 1998
EXTT0=
EXTT1=
EXTT2=
EXTT3=
EXTT4=
EXTT5=
EXTT6=
EXTT7=
EXTT8=
EXTT9=
PLAYORDER=
